<svg width="32" height="32" viewBox="0 0 32 32" fill="none" xmlns="http://www.w3.org/2000/svg">
    <path d="M19 4v7h7l-7-7z" fill="#000" fill-opacity=".1"/>
    <path fill-rule="evenodd" clip-rule="evenodd" d="M26.414 28.414S25.828 29 25 29H7s-.828 0-1.414-.586c0 0-.586-.586-.586-1.414V5s0-.828.586-1.414C5.586 3.586 6.172 3 7 3h12a1 1 0 0 1 .707.293l7 7A1 1 0 0 1 27 11v16s0 .828-.586 1.414zM25 27V11.414L18.586 5H7v22h18z" fill="#0F0F0F"/>
    <path d="M19 12h7a1 1 0 1 0 0-2h-6V4a1 1 0 1 0-2 0v7a1 1 0 0 0 1 1zM13 20h6a1 1 0 1 0 0-2h-6a1 1 0 1 0 0 2z" fill="#0F0F0F"/>
    <path d="M15 16v6a1 1 0 1 0 2 0v-6a1 1 0 1 0-2 0z" fill="#0F0F0F"/>
</svg>
