<svg width="24" height="24" viewBox="0 0 24 24" fill="none" xmlns="http://www.w3.org/2000/svg">
    <path d="M20.946 8.289c-.044-.958-.196-1.612-.419-2.185a4.413 4.413 0 0 0-1.038-1.593c-.5-.5-1.002-.808-1.593-1.038-.573-.223-1.227-.375-2.185-.419C14.751 3.011 14.444 3 12 3s-2.751.01-3.711.054c-.958.044-1.612.196-2.185.419A4.415 4.415 0 0 0 4.511 4.51c-.5.5-.808 1.002-1.038 1.593-.223.572-.375 1.227-.419 2.185C3.011 9.249 3 9.556 3 12s.01 2.751.054 3.711c.044.958.196 1.612.419 2.185.23.591.537 1.093 1.038 1.593.5.5 1.002.808 1.593 1.038.572.223 1.227.375 2.185.419.96.043 1.267.054 3.711.054s2.751-.01 3.711-.054c.958-.044 1.612-.196 2.185-.419a4.413 4.413 0 0 0 1.593-1.038c.5-.5.808-1.002 1.038-1.593.223-.573.375-1.227.419-2.185.043-.96.054-1.267.054-3.711s-.01-2.751-.054-3.711zm-1.62 7.348c-.04.877-.187 1.354-.31 1.67-.163.42-.358.72-.673 1.036-.315.315-.615.51-1.035.673-.317.123-.794.27-1.671.31-.949.043-1.234.052-3.637.052s-2.688-.009-3.637-.052c-.877-.04-1.353-.187-1.67-.31a2.793 2.793 0 0 1-1.036-.673 2.794 2.794 0 0 1-.673-1.035c-.123-.317-.27-.794-.31-1.671-.044-.949-.053-1.234-.053-3.637s.01-2.688.053-3.637c.04-.877.187-1.353.31-1.67.163-.42.358-.72.673-1.036.315-.315.615-.51 1.035-.673.317-.123.794-.27 1.671-.31.949-.044 1.234-.053 3.637-.053s2.688.01 3.637.053c.877.04 1.354.187 1.67.31.42.163.72.358 1.036.673.315.315.51.615.673 1.035.123.317.27.794.31 1.671.043.949.052 1.234.052 3.637s-.009 2.688-.052 3.637zM12 7.379a4.622 4.622 0 1 0 0 9.243 4.622 4.622 0 0 0 0-9.244zM12 15a3 3 0 1 1 0-6 3 3 0 0 1 0 6zm5.884-7.804a1.08 1.08 0 1 1-2.16-.001 1.08 1.08 0 0 1 2.16 0z" fill="#000"/>
</svg>
