<svg width="123" height="56" viewBox="0 0 123 56" fill="none" xmlns="http://www.w3.org/2000/svg">
    <path d="M22.632 1.422H1.024v53.292h21.608V1.422zM38.296 27.044c7.459 0 13.505-5.736 13.505-12.811S45.755 1.422 38.296 1.422c-7.459 0-13.505 5.736-13.505 12.811s6.046 12.811 13.505 12.811zM38.296 54.72c7.459 0 13.505-5.736 13.505-12.811 0-7.076-6.046-12.811-13.505-12.811-7.459 0-13.505 5.735-13.505 12.81 0 7.076 6.046 12.812 13.505 12.812zM56.124 1.422V44.47h25.931L56.124 1.422zM82.055 1.422V44.47h38.894L82.055 1.422z" fill="#040000"/>
    <path d="M56.26 53.898v-5.726h3.04c1.52 0 2.236.794 2.236 1.974 0 1.327-.905 1.984-2.236 1.984h-1.196v1.768H56.26zm3.374-3.752c0-.349-.218-.55-.494-.55h-1.036v1.115h1.036c.257-.005.494-.22.494-.565zM66.347 53.898l-1.084-1.864h-.561v1.864h-1.845v-5.726h3.03c1.53 0 2.242.803 2.242 1.974 0 .831-.363 1.396-.978 1.685l1.312 2.067h-2.115zm-.13-3.752c0-.349-.218-.55-.494-.55h-1.026v1.115h1.026c.257-.005.494-.22.494-.565zM69.242 51.035c0-1.873 1.225-2.984 3.156-2.984 1.922 0 3.147 1.116 3.147 2.984 0 1.86-1.225 2.985-3.147 2.985-1.93 0-3.156-1.125-3.156-2.985zm4.4 0c0-.794-.377-1.441-1.243-1.441-.877 0-1.245.647-1.245 1.441 0 .795.364 1.442 1.245 1.442.866-.004 1.243-.647 1.243-1.442zM76.861 53.898v-5.726h2.701c1.864 0 3.147.831 3.147 2.865 0 2.02-1.283 2.86-3.147 2.86h-2.7zm3.945-2.86c0-.768-.416-1.443-1.244-1.443h-.857v2.884h.857c.852-.005 1.244-.684 1.244-1.442zM83.967 51.634v-3.462h1.844v3.425c0 .515.325.882.925.882.6 0 .93-.367.93-.882v-3.425h1.844v3.462c0 1.396-.959 2.383-2.774 2.383-1.81.005-2.769-.987-2.769-2.383zM90.768 51.035c0-1.873 1.225-2.984 3.156-2.984 1.922 0 2.948.936 3.06 2.443h-1.941c-.126-.524-.344-.9-1.114-.9-.818 0-1.244.647-1.244 1.441 0 .795.426 1.442 1.244 1.442.77 0 .988-.404 1.114-.964h1.94c-.106 1.534-1.151 2.507-3.059 2.507-1.931 0-3.156-1.125-3.156-2.985zM99.385 53.898v-4.303H97.67v-1.423h5.276v1.423h-1.718v4.303h-1.844zM104.244 53.898v-5.726h1.845v5.726h-1.845zM107.406 51.035c0-1.873 1.224-2.984 3.156-2.984 1.921 0 3.146 1.116 3.146 2.984 0 1.86-1.225 2.985-3.146 2.985-1.932 0-3.156-1.125-3.156-2.985zm4.4 0c0-.794-.378-1.441-1.244-1.441-.877 0-1.244.647-1.244 1.441 0 .795.363 1.442 1.244 1.442.866-.004 1.244-.647 1.244-1.442zM118.921 53.898l-2.11-3.077.058.657v2.424h-1.844v-5.726h1.844l2.11 3.068-.058-.657v-2.415h1.845v5.726h-1.845z" fill="#000"/>
</svg>
