<svg width="123" height="56" viewBox="0 0 123 56" fill="none" xmlns="http://www.w3.org/2000/svg">
    <path d="M22.633 1.422H1.024v53.292h21.609V1.422zM38.296 27.044c7.459 0 13.505-5.736 13.505-12.811S45.755 1.422 38.296 1.422c-7.459 0-13.505 5.736-13.505 12.811s6.046 12.811 13.505 12.811zM38.296 54.72c7.459 0 13.505-5.736 13.505-12.811 0-7.076-6.046-12.811-13.505-12.811-7.459 0-13.505 5.735-13.505 12.81 0 7.076 6.046 12.812 13.505 12.812zM56.125 1.422V44.47h25.931L56.125 1.422zM82.056 1.422V44.47h38.894L82.056 1.422zM56.26 53.898v-5.726h3.04c1.52 0 2.237.794 2.237 1.974 0 1.327-.905 1.984-2.236 1.984h-1.196v1.768h-1.844zm3.375-3.752c0-.349-.218-.55-.494-.55h-1.036v1.115h1.036c.256-.005.494-.22.494-.565zM66.349 53.898l-1.085-1.864h-.561v1.864h-1.845v-5.726h3.03c1.53 0 2.242.803 2.242 1.974 0 .831-.363 1.396-.978 1.685l1.312 2.067h-2.115zm-.131-3.752c0-.349-.218-.55-.494-.55h-1.026v1.115h1.026c.257-.005.494-.22.494-.565zM69.243 51.035c0-1.873 1.225-2.984 3.156-2.984 1.922 0 3.147 1.116 3.147 2.984 0 1.86-1.225 2.985-3.147 2.985-1.931 0-3.156-1.125-3.156-2.985zm4.4 0c0-.794-.377-1.441-1.244-1.441-.876 0-1.244.647-1.244 1.441 0 .795.363 1.442 1.244 1.442.867-.004 1.244-.647 1.244-1.442zM76.862 53.898v-5.726h2.701c1.864 0 3.147.831 3.147 2.865 0 2.02-1.283 2.86-3.147 2.86h-2.7zm3.945-2.86c0-.768-.416-1.443-1.244-1.443h-.856v2.884h.856c.852-.005 1.244-.684 1.244-1.442zM83.969 51.634v-3.462h1.844v3.425c0 .515.324.882.925.882.6 0 .929-.367.929-.882v-3.425h1.844v3.462c0 1.396-.958 2.383-2.773 2.383-1.81.005-2.77-.987-2.77-2.383zM90.77 51.035c0-1.873 1.224-2.984 3.156-2.984 1.921 0 2.948.936 3.059 2.443h-1.941c-.126-.524-.344-.9-1.114-.9-.818 0-1.244.647-1.244 1.441 0 .795.426 1.442 1.244 1.442.77 0 .988-.404 1.114-.964h1.94c-.106 1.534-1.151 2.507-3.058 2.507-1.932 0-3.157-1.125-3.157-2.985zM99.385 53.898v-4.303h-1.713v-1.423h5.276v1.423h-1.718v4.303h-1.845zM104.245 53.898v-5.726h1.844v5.726h-1.844zM107.406 51.035c0-1.873 1.225-2.984 3.156-2.984 1.922 0 3.147 1.116 3.147 2.984 0 1.86-1.225 2.985-3.147 2.985-1.931 0-3.156-1.125-3.156-2.985zm4.4 0c0-.794-.377-1.441-1.244-1.441-.876 0-1.244.647-1.244 1.441 0 .795.363 1.442 1.244 1.442.867-.004 1.244-.647 1.244-1.442zM118.922 53.898l-2.11-3.077.058.657v2.424h-1.845v-5.726h1.845l2.11 3.068-.058-.657v-2.415h1.844v5.726h-1.844z" fill="#ff6d2d"/>
</svg>
