<svg width="107" height="51" viewBox="0 0 107 51" fill="none" xmlns="http://www.w3.org/2000/svg">
    <path d="M107 0H0v51h107V0z" fill="#FF6D2D"/>
    <path d="M23.593 3.402H6.742v44.199h16.85V3.402zM35.808 24.652c5.816 0 10.531-4.757 10.531-10.625S41.624 3.402 35.808 3.402c-5.817 0-10.532 4.757-10.532 10.625s4.715 10.625 10.532 10.625zM35.808 47.605c5.816 0 10.531-4.756 10.531-10.624 0-5.869-4.715-10.626-10.531-10.626-5.817 0-10.532 4.757-10.532 10.625 0 5.869 4.715 10.626 10.532 10.626zM49.71 3.402v35.703h20.222L49.71 3.402zM69.932 3.402v35.703h30.33L69.932 3.402z" fill="#040000"/>
    <path d="M49.816 46.92v-4.748h2.37c1.186 0 1.744.659 1.744 1.637 0 1.101-.706 1.646-1.744 1.646h-.932v1.466h-1.438zm2.63-3.11c0-.29-.17-.458-.384-.458h-.808v.926h.808c.2-.004.385-.183.385-.469zM57.682 46.92l-.845-1.545h-.438v1.546h-1.438v-4.75h2.363c1.193 0 1.748.667 1.748 1.638 0 .69-.284 1.158-.763 1.398l1.023 1.714h-1.65zm-.102-3.11c0-.29-.17-.458-.384-.458h-.8v.926h.8c.2-.004.385-.183.385-.469zM59.94 44.55c0-1.554.955-2.476 2.46-2.476 1.5 0 2.455.926 2.455 2.476 0 1.542-.956 2.475-2.454 2.475-1.506 0-2.461-.933-2.461-2.475zm3.431 0c0-.66-.294-1.196-.97-1.196-.683 0-.97.537-.97 1.196 0 .658.283 1.195.97 1.195.676-.003.97-.537.97-1.195zM65.881 46.92v-4.748h2.106c1.454 0 2.454.69 2.454 2.376 0 1.676-1 2.373-2.454 2.373h-2.106zm3.077-2.372c0-.636-.325-1.196-.97-1.196h-.669v2.392h.668c.665-.004.97-.567.97-1.196zM71.423 45.043v-2.871h1.438v2.84c0 .427.253.732.72.732.469 0 .725-.305.725-.731v-2.841h1.439v2.871c0 1.158-.748 1.977-2.163 1.977-1.412.004-2.16-.819-2.16-1.977zM76.726 44.55c0-1.554.955-2.476 2.461-2.476 1.499 0 2.3.777 2.386 2.026h-1.514c-.098-.434-.268-.746-.868-.746-.638 0-.97.537-.97 1.196 0 .658.332 1.195.97 1.195.6 0 .77-.335.868-.8h1.514c-.083 1.273-.898 2.08-2.386 2.08-1.506 0-2.46-.933-2.46-2.475zM83.445 46.92v-3.568H82.11v-1.18h4.115v1.18h-1.34v3.569h-1.439zM87.235 46.92v-4.748h1.438v4.749h-1.438zM89.7 44.55c0-1.554.955-2.476 2.461-2.476 1.499 0 2.454.926 2.454 2.476 0 1.542-.955 2.475-2.454 2.475-1.506 0-2.46-.933-2.46-2.475zm3.431 0c0-.66-.294-1.196-.97-1.196-.683 0-.97.537-.97 1.196 0 .658.283 1.195.97 1.195.676-.003.97-.537.97-1.195zM98.68 46.92l-1.646-2.55.046.544v2.01h-1.438v-4.748h1.438l1.646 2.544-.046-.545v-2.003h1.438v4.749H98.68z" fill="#000"/>
</svg>
